<?xml version="1.0" encoding="utf-8"?>
<!-- Generator: Adobe Illustrator 21.0.2, SVG Export Plug-In . SVG Version: 6.00 Build 0)  -->
<svg height="200px" version="1.1" id="Layer_1" xmlns="http://www.w3.org/2000/svg" xmlns:xlink="http://www.w3.org/1999/xlink" x="0px" y="0px"
	 viewBox="0 0 99.7 100" style="enable-background:new 0 0 99.7 100;" xml:space="preserve">
<style type="text/css">
	.st0{fill:none;}
	.st1{fill:#FFFFFF;}
	.st2{fill:url(#SVGID_1_);}
</style>
<pattern  width="24" height="23" patternUnits="userSpaceOnUse" id="Nueva_muestra_de_motivo_4" viewBox="0 -23 24 23" style="overflow:visible;">
	<g>
		<rect y="-23" class="st0" width="24" height="23"/>
		<path class="st1" d="M0-1.9v-19.9c0.8,0,1.4-0.6,1.5-1.3h20.9c0.1,0.7,0.8,1.3,1.5,1.3c0,0,0,0,0,0v19.9c0,0,0,0,0,0
			c-0.9,0-1.6,0.7-1.6,1.6c0,0.1,0,0.2,0,0.3H1.5c0-0.1,0-0.2,0-0.3C1.6-1.2,0.9-1.9,0-1.9z M10.4-11.3c0,0.9,0.7,1.6,1.6,1.6
			c0.9,0,1.6-0.7,1.6-1.6c0-0.9-0.7-1.6-1.6-1.6C11.1-12.9,10.4-12.2,10.4-11.3z"/>
		<circle cx="12" cy="-11.3" r="1.6"/>
		<path d="M1.5-23H0v1.3C0.8-21.7,1.4-22.3,1.5-23z"/>
		<path d="M24-21.7C24-21.7,24-21.7,24-21.7l0-1.3h-1.6C22.6-22.3,23.2-21.7,24-21.7z"/>
		<path d="M1.6-0.3c0-0.9-0.7-1.6-1.6-1.6V0h1.5C1.5-0.1,1.6-0.2,1.6-0.3z"/>
		<path d="M22.4-0.3c0,0.1,0,0.2,0,0.3H24v-1.9c0,0,0,0,0,0C23.1-1.9,22.4-1.2,22.4-0.3z"/>
	</g>
</pattern>
<pattern  id="SVGID_1_" xlink:href="#Nueva_muestra_de_motivo_4" patternTransform="matrix(0.6259 0 0 0.6259 -3037.3079 -3019.4187)">
</pattern>
<rect x="-33.1" y="-198" class="st2" width="438.1" height="312.9"/>
</svg>
